<?xml version="1.0" encoding="UTF-8"?>
<svg width="30px" height="21px" viewBox="0 0 30 21" version="1.1" xmlns="http://www.w3.org/2000/svg" xmlns:xlink="http://www.w3.org/1999/xlink">
    <!-- Generator: sketchtool 40.2 (33826) - http://www.bohemiancoding.com/sketch -->
    <title>808BA15B-5648-4CB9-8BF1-E371435899EF</title>
    <desc>Created with sketchtool.</desc>
    <defs></defs>
    <g id="Page-1" stroke="none" stroke-width="1" fill="none" fill-rule="evenodd">
        <g id="cto-security-checklist" transform="translate(-296.000000, -751.000000)" fill="#787878">
            <path d="M319.258532,754.44023 C319.24061,754.431313 319.222109,754.410506 319.203609,754.391483 C318.116129,753.395736 316.838442,752.919561 315.369391,752.976037 L315.324296,752.874381 C315.333546,752.86487 315.342797,752.86487 315.351469,752.86487 C316.684079,752.565254 317.472661,752.257316 317.707963,751.92322 C317.790059,751.652734 317.690619,751.504115 317.399815,751.466663 C316.729174,751.550484 316.112878,751.689592 315.560177,751.904792 C316.258569,751.466663 316.529716,751.159319 316.375931,751 C315.686789,751.019023 314.943881,751.365008 314.163971,752.045088 C314.453619,751.559996 314.562887,751.298427 314.49062,751.252058 C314.118876,751.504115 313.792228,751.774602 313.51183,752.062328 C312.922129,752.70555 312.450945,753.302404 312.088452,753.843376 L312.069952,753.89034 C311.136835,755.371773 310.484116,756.862717 310.093873,758.382197 L309.949338,758.495147 L309.922743,758.521898 C309.360214,757.831712 308.689573,757.255071 307.883069,756.787219 C306.931452,756.182043 305.816222,755.603618 304.529285,755.045406 C303.124407,754.337385 301.701029,753.749449 300.259728,753.293486 C300.251056,754.868847 301.03906,756.126162 302.607551,757.039871 L302.607551,757.067811 C302.054272,757.057705 301.519493,757.142121 301.003215,757.30144 C301.102655,758.764444 302.16354,759.770892 304.175464,760.329698 L304.166213,760.357044 C303.377632,760.311864 302.724913,760.582351 302.217307,761.141158 C302.879276,762.409174 304.048273,763.013755 305.743955,762.967386 C305.408056,763.135623 305.145581,763.320505 304.973295,763.527382 C304.665147,763.844238 304.565129,764.218163 304.665147,764.644996 C305.027641,765.288219 305.680359,765.585456 306.641227,765.540276 L306.695572,765.605669 C306.686321,765.614586 306.677071,765.624097 306.668399,765.633014 C305.009718,767.311219 303.006467,768.065608 300.658066,767.908072 L300.622221,767.926501 C299.190171,767.9158 297.658681,767.245826 296,765.904095 C297.667353,768.251679 299.879313,769.947718 302.616801,771.011234 C305.752627,772.027193 308.889031,772.101502 312.016185,771.234163 L312.069952,771.234163 C315.106916,770.376334 317.681369,768.614904 319.801405,765.950464 C320.780772,764.552258 321.397068,763.220633 321.642199,761.942511 C323.228035,761.997797 324.370437,761.550751 325.076923,760.601374 L325.059579,760.572244 C324.533472,760.757721 323.500338,760.703624 321.96827,760.395685 L321.96827,760.227449 C321.96827,760.219126 321.96827,760.219126 321.97752,760.227449 C323.654701,760.041378 324.642741,759.511106 324.959561,758.633065 C323.789986,759.0813 322.638911,759.089623 321.496508,758.671706 C321.288956,757.123692 320.546048,755.716569 319.258532,754.44023" id="icon-twitter"></path>
        </g>
    </g>
</svg>