<svg xmlns="http://www.w3.org/2000/svg" width="30" height="21">
  <path fill="#787878" fill-rule="evenodd" d="M23.26 3.44c-.02-.01-.038-.03-.056-.05-1.088-.994-2.366-1.47-3.835-1.414l-.05-.102c.01-.01.02-.01.02-.01 1.33-.3 2.12-.607 2.35-.94.08-.27-.02-.42-.31-.457-.67.083-1.29.223-1.84.438.7-.438.97-.746.81-.905-.69.02-1.43.365-2.21 1.045.29-.485.4-.747.324-.793-.37.252-.698.523-.978.81-.59.644-1.06 1.24-1.428 1.78l-.02.048c-.933 1.482-1.586 2.973-1.976 4.492l-.145.113-.03.027c-.564-.69-1.234-1.267-2.04-1.735-.95-.605-2.065-1.183-3.35-1.742-1.377-.708-2.8-1.295-4.24-1.752-.01 1.576.78 2.833 2.35 3.747v.028c-.556-.01-1.09.074-1.607.233.1 1.47 1.16 2.47 3.172 3.03l-.01.03c-.787-.04-1.44.23-1.948.79.66 1.27 1.83 1.88 3.526 1.83-.336.17-.598.36-.77.56-.31.32-.41.69-.31 1.12.364.65 1.016.94 1.977.9l.06.07-.03.03c-1.66 1.677-3.66 2.433-6.01 2.273l-.03.02c-1.43-.02-2.96-.69-4.62-2.034 1.67 2.35 3.88 4.044 6.62 5.107 3.14 1.02 6.275 1.098 9.4.23h.056c3.038-.86 5.61-2.62 7.73-5.284.98-1.4 1.598-2.73 1.843-4.01 1.583.056 2.725-.39 3.432-1.34l-.014-.024c-.527.186-1.56.13-3.09-.176v-.17c0-.002 0-.002.01 0 1.675-.18 2.663-.71 2.98-1.59-1.17.45-2.32.46-3.46.04-.21-1.55-.95-2.953-2.24-4.23"/>
</svg>
