<?xml version="1.0" encoding="UTF-8"?>
<svg width="25px" height="25px" viewBox="0 0 25 25" version="1.1" xmlns="http://www.w3.org/2000/svg" xmlns:xlink="http://www.w3.org/1999/xlink">
    <!-- Generator: sketchtool 40.2 (33826) - http://www.bohemiancoding.com/sketch -->
    <title>D69A66F7-07D8-470B-9542-6566B79E60D9</title>
    <desc>Created with sketchtool.</desc>
    <defs></defs>
    <g id="Page-1" stroke="none" stroke-width="1" fill="none" fill-rule="evenodd">
        <g id="cto-security-checklist" transform="translate(-250.000000, -749.000000)" fill="#787878">
            <path d="M271.128277,769.927395 L267.363819,769.927395 L267.363819,763.887433 C267.363819,762.370651 266.819721,761.335199 265.456905,761.335199 C264.417565,761.335199 263.798384,762.03336 263.525306,762.707941 C263.426052,762.949376 263.401882,763.285641 263.401882,763.622932 L263.401882,769.927395 L259.637424,769.927395 C259.637424,769.927395 259.686794,759.697443 259.637424,758.639437 L263.401882,758.639437 L263.401882,760.237211 C263.902266,759.468311 264.796582,758.372886 266.795036,758.372886 C269.271247,758.372886 271.128277,759.986549 271.128277,763.454799 L271.128277,769.927395 L271.128277,769.927395 Z M255.6724,757.097537 L255.647201,757.097537 C254.384153,757.097537 253.567492,756.230219 253.567492,755.147096 C253.567492,754.03988 254.409867,753.196654 255.697085,753.196654 C256.984818,753.196654 257.777308,754.03988 257.802508,755.147096 C257.802508,756.230219 256.984818,757.097537 255.6724,757.097537 L255.6724,757.097537 Z M253.789657,769.927395 L257.554115,769.927395 L257.554115,758.639437 L253.789657,758.639437 L253.789657,769.927395 Z M273.080961,749 L251.841087,749 C250.824375,749 250,749.801706 250,750.791023 L250,772.208977 C250,773.197269 250.824375,774 251.841087,774 L273.080961,774 C274.098188,774 274.923077,773.197269 274.923077,772.208977 L274.923077,750.791023 C274.923077,749.801706 274.098188,749 273.080961,749 L273.080961,749 Z" id="icon-linkedin"></path>
        </g>
    </g>
</svg>