<svg xmlns="http://www.w3.org/2000/svg" width="25" height="25">
  <path fill="#787878" fill-rule="evenodd" d="M21.128 20.927h-3.764v-6.04c0-1.516-.544-2.552-1.907-2.552-1.04 0-1.66.698-1.932 1.373-.1.24-.123.578-.123.915v6.304H9.637s.05-10.23 0-11.288h3.765v1.596c.5-.77 1.395-1.864 3.393-1.864 2.476 0 4.333 1.614 4.333 5.082v6.472zM5.672 8.097h-.025c-1.263 0-2.08-.867-2.08-1.95 0-1.107.843-1.95 2.13-1.95 1.288 0 2.08.843 2.106 1.95 0 1.083-.818 1.95-2.13 1.95zM3.79 20.927h3.764V9.64H3.79v11.287zM23.08 0H1.84C.825 0 0 .802 0 1.79v21.42C0 24.196.824 25 1.84 25h21.24c1.018 0 1.843-.803 1.843-1.79V1.79c0-.988-.825-1.79-1.842-1.79z"/>
</svg>
