<?xml version="1.0" encoding="UTF-8"?>
<svg width="22px" height="15px" viewBox="0 0 22 15" version="1.1" xmlns="http://www.w3.org/2000/svg" xmlns:xlink="http://www.w3.org/1999/xlink">
    <!-- Generator: sketchtool 41.2 (35397) - http://www.bohemiancoding.com/sketch -->
    <title>B59A6197-4A3F-405E-A6AD-3E7D31E87AF2</title>
    <desc>Created with sketchtool.</desc>
    <defs></defs>
    <g id="Page-1" stroke="none" stroke-width="1" fill="none" fill-rule="evenodd">
        <g id="cto-security-checklist-footer" transform="translate(-656.000000, -1501.000000)" fill="#FFFFFF">
            <path d="M673.597725,1503.47697 C673.584165,1503.47055 673.570167,1503.45556 673.55617,1503.44187 C672.733368,1502.72493 671.766652,1502.38208 670.655148,1502.42275 L670.621028,1502.34955 C670.628027,1502.34271 670.635026,1502.34271 670.641587,1502.34271 C671.649859,1502.12698 672.246511,1501.90527 672.424544,1501.66472 C672.486658,1501.46997 672.411421,1501.36296 672.191395,1501.336 C671.683978,1501.39635 671.21768,1501.49651 670.799499,1501.65145 C671.327912,1501.336 671.533066,1501.11471 671.41671,1501 C670.895296,1501.0137 670.333201,1501.26281 669.743111,1501.75246 C669.962262,1501.4032 670.044936,1501.21487 669.990257,1501.18148 C669.708991,1501.36296 669.461844,1501.55771 669.249692,1501.76488 C668.803515,1502.228 668.447012,1502.65773 668.172744,1503.04723 L668.158747,1503.08104 C667.452738,1504.14768 666.958882,1505.22116 666.663618,1506.31518 L666.554261,1506.39651 L666.534139,1506.41577 C666.108522,1505.91883 665.601105,1505.50365 664.990894,1505.1668 C664.270887,1504.73107 663.427089,1504.31461 662.453374,1503.91269 C661.390424,1503.40292 660.313477,1502.9796 659.222969,1502.65131 C659.216408,1503.78557 659.812622,1504.69084 660.999364,1505.34871 L660.999364,1505.36882 C660.580745,1505.36155 660.176124,1505.42233 659.785501,1505.53704 C659.860739,1506.5904 660.663419,1507.31504 662.185668,1507.71738 L662.178669,1507.73707 C661.582018,1507.70454 661.088162,1507.89929 660.7041,1508.30163 C661.204955,1509.21461 662.089434,1509.6499 663.37241,1509.61652 C663.118265,1509.73765 662.919672,1509.87076 662.789319,1510.01972 C662.55617,1510.24785 662.480495,1510.51708 662.55617,1510.8244 C662.830437,1511.28752 663.324293,1511.50153 664.051298,1511.469 L664.092417,1511.51608 C664.085418,1511.5225 664.078419,1511.52935 664.071857,1511.53577 C662.816877,1512.74408 661.301189,1513.28724 659.524357,1513.17381 L659.497236,1513.18708 C658.413727,1513.17938 657.254981,1512.697 656,1511.73095 C657.261542,1513.42121 658.935141,1514.64236 661.006363,1515.40809 C663.378972,1516.13958 665.752018,1516.19308 668.118066,1515.5686 L668.158747,1515.5686 C670.456555,1514.95096 672.404422,1513.68273 674.00847,1511.76433 C674.749473,1510.75763 675.215771,1509.79886 675.401241,1508.87861 C676.601105,1508.91841 677.465463,1508.59654 678,1507.91299 L677.986877,1507.89202 C677.588818,1508.02556 676.807134,1507.98661 675.64795,1507.76489 L675.64795,1507.64376 C675.64795,1507.63777 675.64795,1507.63777 675.654949,1507.64376 C676.923927,1507.50979 677.671492,1507.128 677.911202,1506.49581 C677.026285,1506.81854 676.155366,1506.82453 675.291009,1506.52363 C675.133972,1505.40906 674.571877,1504.39593 673.597725,1503.47697" id="twitter-logo"></path>
        </g>
    </g>
</svg>