<?xml version="1.0" encoding="UTF-8"?>
<svg width="215px" height="79px" viewBox="0 0 215 79" version="1.1" xmlns="http://www.w3.org/2000/svg" xmlns:xlink="http://www.w3.org/1999/xlink">
    <g id="Page-1" stroke="none" stroke-width="1" fill="none" fill-rule="evenodd" opacity="0.900000036">
        <g id="cto-security-checklist" transform="translate(-250.000000, -192.000000)" fill="#9013fe">
            <g id="logo-csc" transform="translate(250.000000, 192.000000)">
                <path d="M102.096,5.97558553 L98.12,7.96358553 C97.7839983,7.04891429 97.2286705,6.32092157 96.454,5.77958553 C95.6793295,5.23824949 94.8533377,4.96758553 93.976,4.96758553 C92.501326,4.96758553 91.334671,5.46224725 90.476,6.45158553 C89.5239952,7.55292437 89.048,9.16757489 89.048,11.2955855 C89.048,13.0129275 89.4119964,14.4315799 90.14,15.5515855 C91.0173377,16.9329258 92.351991,17.6235855 94.144,17.6235855 C94.8720036,17.6235855 95.6419959,17.3669214 96.454,16.8535855 C97.2660041,16.3402496 97.8586648,15.6635897 98.232,14.8235855 L102.18,16.7275855 C101.321329,18.2955934 100.182674,19.5369143 98.764,20.4515855 C97.3453262,21.3662568 95.8053416,21.8235855 94.144,21.8235855 C91.0826514,21.8235855 88.6093428,20.7689294 86.724,18.6595855 C84.9506578,16.680909 84.064,14.2262669 84.064,11.2955855 C84.064,8.34623745 84.9039916,5.89159533 86.584,3.93158553 C88.376009,1.82224165 90.7653184,0.767585532 93.752,0.767585532 C97.3733514,0.767585532 100.154657,2.50356817 102.096,5.97558553 L102.096,5.97558553 Z M103.557091,5.19158553 L103.557091,1.32758553 L118.957091,1.32758553 L118.957091,5.19158553 L113.749091,5.19158553 L113.749091,21.2635855 L108.765091,21.2635855 L108.765091,5.19158553 L103.557091,5.19158553 Z M136.042182,11.2955855 C136.042182,9.54091009 135.659519,8.09425789 134.894182,6.95558553 C133.979511,5.63024557 132.663524,4.96758553 130.946182,4.96758553 C129.396841,4.96758553 128.18352,5.46224725 127.306182,6.45158553 C126.335511,7.53425761 125.850182,9.14890813 125.850182,11.2955855 C125.850182,13.0129275 126.214179,14.4315799 126.942182,15.5515855 C127.81952,16.9329258 129.154173,17.6235855 130.946182,17.6235855 C132.663524,17.6235855 133.979511,16.9515923 134.894182,15.6075855 C135.659519,14.4689132 136.042182,13.0315942 136.042182,11.2955855 L136.042182,11.2955855 Z M141.026182,11.2955855 C141.026182,14.2262669 140.139524,16.680909 138.366182,18.6595855 C136.480839,20.7689294 134.007531,21.8235855 130.946182,21.8235855 C127.884834,21.8235855 125.411525,20.7689294 123.526182,18.6595855 C121.75284,16.680909 120.866182,14.2262669 120.866182,11.2955855 C120.866182,8.36490421 121.75284,5.91026209 123.526182,3.93158553 C125.411525,1.82224165 127.884834,0.767585532 130.946182,0.767585532 C134.007531,0.767585532 136.480839,1.82224165 138.366182,3.93158553 C140.139524,5.91026209 141.026182,8.36490421 141.026182,11.2955855 L141.026182,11.2955855 Z M83.056,46.0271711 L86.864,43.5631711 C88.7120092,45.2245127 90.6346567,46.0551711 92.632,46.0551711 C93.490671,46.0551711 94.2746631,45.8871727 94.984,45.5511711 C95.8986712,45.1218356 96.356,44.5245082 96.356,43.7591711 C96.356,42.8258331 95.6093408,42.2378389 94.116,41.9951711 L89.972,41.3231711 C86.163981,40.707168 84.26,38.8778529 84.26,35.8351711 C84.26,33.5764931 85.0906584,31.8405105 86.752,30.6271711 C88.2080073,29.5631657 90.0933218,29.0311711 92.408,29.0311711 C95.9733512,29.0311711 98.9039885,30.3098249 101.2,32.8671711 L97.42,35.5831711 C96.0386598,33.9031627 94.2560109,33.0631711 92.072,33.0631711 C91.4186634,33.0631711 90.8026696,33.2405026 90.224,33.5951711 C89.5706634,33.987173 89.244,34.4818347 89.244,35.0791711 C89.244,36.0498426 90.1679908,36.6845029 92.016,36.9831711 L93.92,37.2911711 C96.2160115,37.6645063 97.9239944,38.2151674 99.044,38.9431711 C100.462674,39.8765091 101.172,41.2204956 101.172,42.9751711 C101.172,45.6445177 100.117344,47.5764984 98.008,48.7711711 C96.4586589,49.6485088 94.4706788,50.0871711 92.044,50.0871711 C88.5346491,50.0871711 85.5386791,48.7338513 83.056,46.0271711 L83.056,46.0271711 Z M118.201091,42.9751711 L107.953091,42.9751711 C107.971758,44.2818443 108.345087,45.2618345 109.073091,45.9151711 C109.651761,46.4565071 110.361087,46.7271711 111.201091,46.7271711 C111.966428,46.7271711 112.619755,46.5125065 113.161091,46.0831711 C113.590427,45.7471694 114.150421,45.0845093 114.841091,44.0951711 L118.117091,45.8031711 C116.642417,48.5471848 114.234441,49.9191711 110.893091,49.9191711 C108.634413,49.9191711 106.842431,49.2098448 105.517091,47.7911711 C104.229085,46.4471643 103.585091,44.6925152 103.585091,42.5271711 C103.585091,39.9138247 104.233751,37.8791783 105.531091,36.4231711 C106.828431,34.9671638 108.615746,34.2391711 110.893091,34.2391711 C113.43177,34.2391711 115.326418,35.1164956 116.577091,36.8711711 C117.641096,38.3831786 118.182424,40.4178249 118.201091,42.9751711 L118.201091,42.9751711 Z M107.897091,40.2871711 L113.833091,40.2871711 C113.777091,39.2978328 113.422428,38.5511736 112.769091,38.0471711 C112.246422,37.6365023 111.611761,37.4311711 110.865091,37.4311711 C110.155754,37.4311711 109.530427,37.6645021 108.989091,38.1311711 C108.354421,38.6538403 107.990425,39.3724998 107.897091,40.2871711 L107.897091,40.2871711 Z M134.782182,37.8791711 L131.422182,39.6431711 C130.787512,38.2804976 129.854188,37.5991711 128.622182,37.5991711 C127.502177,37.5991711 126.657518,37.9725007 126.088182,38.7191711 C125.518846,39.4658415 125.234182,40.5858303 125.234182,42.0791711 C125.234182,43.4231778 125.504846,44.4871671 126.046182,45.2711711 C126.643518,46.129842 127.502177,46.5591711 128.622182,46.5591711 C130.096856,46.5591711 131.132846,45.8311783 131.730182,44.3751711 L134.866182,45.9711711 C134.175512,47.1845105 133.260855,48.1365009 132.122182,48.8271711 C130.92751,49.5551747 129.630189,49.9191711 128.230182,49.9191711 C125.952837,49.9191711 124.142189,49.2378445 122.798182,47.8751711 C121.398175,46.4751641 120.698182,44.5431834 120.698182,42.0791711 C120.698182,39.671159 121.416842,37.7485116 122.854182,36.3111711 C124.216856,34.9298308 125.962172,34.2391711 128.090182,34.2391711 C131.226198,34.2391711 133.456842,35.4524923 134.782182,37.8791711 L134.782182,37.8791711 Z M151.027273,34.6311711 L151.027273,49.5271711 L146.659273,49.5271711 L146.659273,48.2111711 C146.173937,48.7711739 145.571943,49.1958363 144.853273,49.4851711 C144.134603,49.7745058 143.299278,49.9191711 142.347273,49.9191711 C140.853932,49.9191711 139.729277,49.5598413 138.973273,48.8411711 C138.217269,48.1225008 137.839273,47.0538448 137.839273,45.6351711 L137.839273,34.6311711 L142.207273,34.6311711 L142.207273,44.3751711 C142.207273,45.0471744 142.384605,45.5511694 142.739273,45.8871711 C143.093942,46.2231727 143.625936,46.3911711 144.335273,46.3911711 C145.119277,46.3911711 145.702605,46.195173 146.085273,45.8031711 C146.467942,45.4111691 146.659273,44.8325082 146.659273,44.0671711 L146.659273,34.6311711 L151.027273,34.6311711 Z M155.456364,49.5271711 L155.456364,34.6311711 L159.824364,34.6311711 L159.824364,36.1431711 C160.795036,35.2284998 162.157689,34.7058384 163.912364,34.5751711 L163.940364,38.4391711 L163.464364,38.4951711 C162.101691,38.6631719 161.168367,38.8965029 160.664364,39.1951711 C160.104362,39.5311727 159.824364,40.1005004 159.824364,40.9031711 L159.824364,49.5271711 L155.456364,49.5271711 Z M166.857455,34.6311711 L171.225455,34.6311711 L171.225455,49.5271711 L166.857455,49.5271711 L166.857455,34.6311711 Z M171.225455,32.9511711 L166.857455,32.9511711 L166.857455,29.5911711 L171.225455,29.5911711 L171.225455,32.9511711 Z M183.018546,34.9111711 L183.018546,37.5991711 L180.414546,37.5991711 L180.414546,44.9071711 C180.414546,45.3925068 180.531212,45.7611698 180.764546,46.0131711 C180.997881,46.2651723 181.338544,46.3911711 181.786546,46.3911711 C182.215882,46.3911711 182.654544,46.3631713 183.102546,46.3071711 L183.102546,49.7511711 C181.982541,49.8631716 181.049217,49.9191711 180.302546,49.9191711 C178.622538,49.9191711 177.44655,49.4431758 176.774546,48.4911711 C176.289211,47.8005009 176.046546,46.7831778 176.046546,45.4391711 L176.046546,37.5991711 L173.918546,37.5991711 L173.918546,34.9111711 L176.046546,34.9111711 L176.046546,30.5991711 L180.414546,30.5991711 L180.414546,34.9111711 L183.018546,34.9111711 Z M185.207638,54.4551711 L185.207638,51.0391711 C185.879641,51.0765046 186.374303,51.0951711 186.691638,51.0951711 C188.035644,51.0951711 188.707638,50.7311747 188.707638,50.0031711 C188.707638,49.7605032 188.576972,49.2285085 188.315638,48.4071711 L183.947638,34.6311711 L188.539638,34.6311711 L191.003638,45.9991711 L193.439638,34.6311711 L198.171638,34.6311711 L192.935638,50.5071711 C192.506302,51.8138443 192.020974,52.7565015 191.479638,53.3351711 C190.788967,54.0818415 189.84631,54.4551711 188.651638,54.4551711 L185.207638,54.4551711 Z M102.096,62.5027566 L98.12,64.4907566 C97.7839983,63.5760854 97.2286705,62.8480926 96.454,62.3067566 C95.6793295,61.7654206 94.8533377,61.4947566 93.976,61.4947566 C92.501326,61.4947566 91.334671,61.9894183 90.476,62.9787566 C89.5239952,64.0800954 89.048,65.694746 89.048,67.8227566 C89.048,69.5400985 89.4119964,70.958751 90.14,72.0787566 C91.0173377,73.4600968 92.351991,74.1507566 94.144,74.1507566 C94.8720036,74.1507566 95.6419959,73.8940925 96.454,73.3807566 C97.2660041,72.8674207 97.8586648,72.1907608 98.232,71.3507566 L102.18,73.2547566 C101.321329,74.8227644 100.182674,76.0640854 98.764,76.9787566 C97.3453262,77.8934278 95.8053416,78.3507566 94.144,78.3507566 C91.0826514,78.3507566 88.6093428,77.2961005 86.724,75.1867566 C84.9506578,73.20808 84.064,70.7534379 84.064,67.8227566 C84.064,64.8734085 84.9039916,62.4187664 86.584,60.4587566 C88.376009,58.3494127 90.7653184,57.2947566 93.752,57.2947566 C97.3733514,57.2947566 100.154657,59.0307392 102.096,62.5027566 L102.096,62.5027566 Z M105.181091,77.7907566 L105.181091,57.8547566 L109.549091,57.8547566 L109.605091,64.2947566 C109.997093,63.7534206 110.613087,63.3147583 111.453091,62.9787566 C112.218428,62.6614217 112.965087,62.5027566 113.693091,62.5027566 C115.261099,62.5027566 116.432421,62.9040859 117.207091,63.7067566 C117.981762,64.5094273 118.369091,65.7134152 118.369091,67.3187566 L118.369091,77.7907566 L114.001091,77.7907566 L114.001091,68.8587566 C114.001091,67.9067518 113.819093,67.1974256 113.455091,66.7307566 C113.091089,66.2640876 112.545095,66.0307566 111.817091,66.0307566 C111.070421,66.0307566 110.50576,66.3154204 110.123091,66.8847566 C109.740422,67.4540928 109.549091,68.3080842 109.549091,69.4467566 L109.549091,77.7907566 L105.181091,77.7907566 Z M136.350182,71.2387566 L126.102182,71.2387566 C126.120849,72.5454298 126.494179,73.52542 127.222182,74.1787566 C127.800852,74.7200926 128.510178,74.9907566 129.350182,74.9907566 C130.115519,74.9907566 130.768846,74.7760921 131.310182,74.3467566 C131.739518,74.0107549 132.299512,73.3480949 132.990182,72.3587566 L136.266182,74.0667566 C134.791508,76.8107703 132.383532,78.1827566 129.042182,78.1827566 C126.783504,78.1827566 124.991522,77.4734304 123.666182,76.0547566 C122.378176,74.7107499 121.734182,72.9561008 121.734182,70.7907566 C121.734182,68.1774102 122.382842,66.1427639 123.680182,64.6867566 C124.977522,63.2307493 126.764837,62.5027566 129.042182,62.5027566 C131.580862,62.5027566 133.475509,63.3800812 134.726182,65.1347566 C135.790187,66.6467642 136.331515,68.6814105 136.350182,71.2387566 L136.350182,71.2387566 Z M126.046182,68.5507566 L131.982182,68.5507566 C131.926182,67.5614183 131.571519,66.8147591 130.918182,66.3107566 C130.395513,65.9000879 129.760853,65.6947566 129.014182,65.6947566 C128.304845,65.6947566 127.679518,65.9280876 127.138182,66.3947566 C126.503512,66.9174259 126.139516,67.6360854 126.046182,68.5507566 L126.046182,68.5507566 Z M152.931273,66.1427566 L149.571273,67.9067566 C148.936603,66.5440831 148.003279,65.8627566 146.771273,65.8627566 C145.651268,65.8627566 144.806609,66.2360862 144.237273,66.9827566 C143.667937,67.729427 143.383273,68.8494158 143.383273,70.3427566 C143.383273,71.6867633 143.653937,72.7507527 144.195273,73.5347566 C144.79261,74.3934276 145.651268,74.8227566 146.771273,74.8227566 C148.245947,74.8227566 149.281937,74.0947639 149.879273,72.6387566 L153.015273,74.2347566 C152.324603,75.448096 151.409946,76.4000865 150.271273,77.0907566 C149.076601,77.8187602 147.77928,78.1827566 146.379273,78.1827566 C144.101929,78.1827566 142.29128,77.5014301 140.947273,76.1387566 C139.547266,74.7387496 138.847273,72.8067689 138.847273,70.3427566 C138.847273,67.9347446 139.565933,66.0120971 141.003273,64.5747566 C142.365947,63.1934164 144.111263,62.5027566 146.239273,62.5027566 C149.375289,62.5027566 151.605933,63.7160778 152.931273,66.1427566 L152.931273,66.1427566 Z M160.356364,77.7907566 L155.988364,77.7907566 L155.988364,57.8547566 L160.356364,57.8547566 L160.356364,67.9067566 L164.892364,62.8947566 L170.240364,62.8947566 L165.144364,68.5507566 L170.660364,77.7907566 L165.676364,77.7907566 L161.980364,71.7707566 L160.356364,73.4227566 L160.356364,77.7907566 Z M177.469455,77.7907566 L173.101455,77.7907566 L173.101455,57.8547566 L177.469455,57.8547566 L177.469455,77.7907566 Z M181.898546,62.8947566 L186.266546,62.8947566 L186.266546,77.7907566 L181.898546,77.7907566 L181.898546,62.8947566 Z M186.266546,61.2147566 L181.898546,61.2147566 L181.898546,57.8547566 L186.266546,57.8547566 L186.266546,61.2147566 Z M203.043638,64.6587566 L200.355638,67.2907566 C199.944969,66.8054208 199.319642,66.4134248 198.479638,66.1147566 C197.732967,65.8347552 196.986308,65.6947566 196.239638,65.6947566 C195.623634,65.6947566 195.156972,65.788089 194.839638,65.9747566 C194.522303,66.1614242 194.363638,66.4507546 194.363638,66.8427566 C194.363638,67.4960932 195.128963,67.9814217 196.659638,68.2987566 C198.936982,68.7840924 200.346302,69.1480887 200.887638,69.3907566 C202.418312,70.1000935 203.183638,71.2574152 203.183638,72.8627566 C203.183638,74.6734323 202.474311,76.0454186 201.055638,76.9787566 C199.842298,77.7814273 198.311647,78.1827566 196.463638,78.1827566 C194.89563,78.1827566 193.551643,77.9400924 192.431638,77.4547566 C191.404966,77.0254211 190.32231,76.2880952 189.183638,75.2427566 L191.899638,72.8907566 C193.355645,74.2907636 194.923629,74.9907566 196.603638,74.9907566 C197.406308,74.9907566 198.003636,74.8647579 198.395638,74.6127566 C198.78764,74.3607553 198.983638,73.9827591 198.983638,73.4787566 C198.983638,72.8814203 198.218312,72.4334248 196.687638,72.1347566 C194.447626,71.6680876 193.038307,71.3040912 192.459638,71.0427566 C190.928963,70.3520865 190.163638,69.2414309 190.163638,67.7107566 C190.163638,65.9747479 190.835631,64.6400946 192.179638,63.7067566 C193.31831,62.9040859 194.746296,62.5027566 196.463638,62.5027566 C198.703649,62.5027566 200.89696,63.2214161 203.043638,64.6587566 L203.043638,64.6587566 Z M214.136729,63.1747566 L214.136729,65.8627566 L211.532729,65.8627566 L211.532729,73.1707566 C211.532729,73.6560924 211.649394,74.0247553 211.882729,74.2767566 C212.116063,74.5287579 212.456726,74.6547566 212.904729,74.6547566 C213.334064,74.6547566 213.772726,74.6267569 214.220729,74.5707566 L214.220729,78.0147566 C213.100723,78.1267572 212.167399,78.1827566 211.420729,78.1827566 C209.74072,78.1827566 208.564732,77.7067614 207.892729,76.7547566 C207.407393,76.0640865 207.164729,75.0467633 207.164729,73.7027566 L207.164729,65.8627566 L205.036729,65.8627566 L205.036729,63.1747566 L207.164729,63.1747566 L207.164729,58.8627566 L211.532729,58.8627566 L211.532729,63.1747566 L214.136729,63.1747566 Z M50.6253333,9.65166667 C43.922,9.65166667 37.9453333,6.535 34.0286667,1.665 L33.972,1.665 C30.0553333,6.535 24.0786667,9.65166667 17.3753333,9.65166667 C11.512,9.65166667 6.19533333,7.265 0.668666667,3.40166667 L0.668666667,52.7783333 C0.668666667,52.7783333 5.502,70.345 34.002,78.3316667 C62.502,70.345 67.3353333,52.7783333 67.3353333,52.7783333 L67.3353333,3.40166667 C61.8053333,7.265 56.492,9.65166667 50.6253333,9.65166667 Z M15.6736204,34.3279627 L17.3882353,36.0786206 L19.1028502,34.3279627 L27.5734385,25.679314 L29.2527525,23.9646991 L25.8235226,20.606071 L24.1442086,22.320686 L17.387303,29.2177248 L15.7146149,27.5098752 L14.0353009,25.7952602 L10.606071,29.1538883 L12.2853851,30.8685032 L15.6736204,34.3279627 Z M15.6736204,53.3279627 L17.3882353,55.0786206 L19.1028502,53.3279627 L27.5734385,44.679314 L29.2527525,42.9646991 L25.8235226,39.606071 L24.1442086,41.320686 L17.4138192,48.2447984 L15.7146149,46.5098752 L14.0353009,44.7952602 L10.606071,48.1538883 L12.2853851,49.8685032 L15.6736204,53.3279627 Z M53.3347317,32.4 L55.7347317,32.4 L55.7347317,27.6 L53.3347317,27.6 L34,27.6 L31.6,27.6 L31.6,32.4 L34,32.4 L53.3347317,32.4 Z M53.3347317,51.4 L55.7347317,51.4 L55.7347317,46.6 L53.3347317,46.6 L34,46.6 L31.6,46.6 L31.6,51.4 L34,51.4 L53.3347317,51.4 Z" id="Combined-Shape"></path>
            </g>
        </g>
    </g>
</svg>
