<svg xmlns="http://www.w3.org/2000/svg" width="87" height="100">
  <defs>
    <linearGradient id="a" x1="-24.0077%" y1="0%" y2="100%">
      <stop stop-color="#C32AFF" offset="0%"/>
      <stop stop-color="#9012FE" offset="100%"/>
    </linearGradient>
  </defs>
  <path fill="url(#a)" fill-rule="evenodd" d="M315.1934 159.4174c-8.7478 0-16.5473-4.0652-21.6586-10.4174h-.074c-5.1112 6.3522-12.9108 10.4174-21.6586 10.4174-7.6517 0-14.59-3.113-21.8022-8.1522v64.4044s6.3075 22.913 43.5 33.3304c37.1925-10.4174 43.5-33.3304 43.5-33.3304v-64.4044c-7.2167 5.039-14.1506 8.1522-21.8066 8.1522zm-45.612 32.1865l2.2376 2.283 2.2376-2.2834 11.054-11.281 2.1916-2.2364-4.475-4.381-2.1916 2.2366-8.8178 8.996-2.1828-2.2276-2.1915-2.2364-4.4752 4.381 2.1915 2.2364 4.4217 4.5124zm0 24.7822l2.2376 2.2834 2.2376-2.2835 11.054-11.281 2.1916-2.2362-4.475-4.381-2.1916 2.2365-8.7832 9.0315-2.2174-2.263-2.1915-2.2363-4.4752 4.3807 2.1915 2.2364 4.4217 4.5125zm49.1478-27.2974h3.132v-6.2608h-31.4958v6.2608h28.3638zm0 24.7826h3.132v-6.2608h-31.4958v6.2606h28.3638z" transform="translate(-250 -149)"/>
</svg>
