<svg xmlns="http://www.w3.org/2000/svg" width="100" height="17">
  <path fill="#616161" fill-rule="evenodd" d="M31.8682 8.358s0 .2863-.1415.4772c-.1886.2386-3.4885 4.5332-5.0442 6.5852-1.5557 2.0998-4.7142.9545-4.7142.9545s1.037-.621 1.697-1.432c1.744-2.243 5.0913-6.633 5.0913-6.633s-3.3472-4.295-5.0912-6.586C23.0524.913 21.968.293 21.968.293s3.1586-1.0973 4.7142.9547c1.5557 2.0996 4.8556 6.3944 4.997 6.633.1886.1908.1886.477.1886.477l.0004.0002zM0 8.358s0 .2863.1414.4772c.1414.1907 3.4886 4.5332 4.997 6.5852 1.5087 2.052 4.7143.9545 4.7143.9545s-1.037-.621-1.697-1.432C6.4112 12.7 3.064 8.358 3.064 8.358s3.3473-4.3426 5.0917-6.6332C8.7682.9138 9.8527.2933 9.8527.2933S6.694-.8044 5.1384 1.2475C3.583 3.2995.33 7.642.1884 7.8805.047 8.1195 0 8.358 0 8.358zm15.934-5.4402c-2.8756 0-5.2798 2.4338-5.2798 5.44 0 3.0066 2.357 5.4402 5.28 5.4402 2.9227 0 5.2798-2.4337 5.2798-5.44 0-3.0064-2.4042-5.4402-5.28-5.4402zm33.4345 1.4626L47.5132 6.197c-.2834-.335-.715-.6055-1.2948-.8117-.5154-.1932-1.0308-.2898-1.546-.2898-.4253 0-.7474.0644-.9665.1932-.219.1288-.329.3286-.329.599 0 .451.528.786 1.584 1.005 1.572.335 2.5445.5864 2.9182.7538 1.0565.4896 1.585 1.2884 1.585 2.3965 0 1.2497-.4898 2.1967-1.469 2.841-.8374.554-1.894.831-3.1694.831-1.0825 0-2.01-.1675-2.783-.5025-.7088-.2964-1.456-.8052-2.242-1.5268l1.8746-1.6234c1.005.9663 2.087 1.4495 3.2467 1.4495.554 0 .9666-.087 1.237-.261.2707-.174.406-.4348.406-.7826 0-.4124-.5283-.7216-1.5847-.9277-1.546-.322-2.519-.5733-2.9183-.7537-1.0564-.4767-1.5846-1.2434-1.5846-2.3 0-1.198.464-2.1193 1.3915-2.7635.786-.554 1.7715-.831 2.957-.831 1.546 0 3.06.496 4.5415 1.488zm10.8723-1.2176v13.683h-3.015l-.0385-4.0585c-.348.3092-.7312.541-1.15.6958-.4186.155-.8793.232-1.3818.232-1.4043 0-2.4866-.483-3.2468-1.449-.7602-.966-1.1402-2.403-1.1402-4.31 0-1.584.4316-2.841 1.2948-3.768.799-.863 1.836-1.2945 3.1116-1.2945.605 0 1.14.0998 1.604.2995.463.2.856.506 1.178.918v-.947h2.783zm-2.9376 5.1408c0-.9405-.1674-1.6942-.5025-2.2612-.3736-.6313-.9148-.947-1.6234-.947-.6957 0-1.224.3028-1.5847.9084-.3092.5283-.4638 1.1854-.4638 1.9713 0 1.173.174 2.055.5218 2.648.3478.593.8696.889 1.5654.889.6957 0 1.2175-.267 1.5654-.802.348-.534.5218-1.337.5218-2.406zm4.9198 5.1408V3.1628h3.015v1.0436c.67-.6313 1.6105-.992 2.8216-1.0822l.0193 2.667-.329.0386c-.941.116-1.585.277-1.933.4832-.387.232-.58.625-.58 1.179v5.9524h-3.015zM78.5067 8.922h-7.0734c.0128.902.2705 1.5783.773 2.0293.3994.3737.889.5605 1.4688.5605.529 0 .98-.1482 1.353-.4445.297-.232.683-.6893 1.16-1.3722l2.261 1.179c-1.018 1.894-2.68 2.841-4.986 2.841-1.559 0-2.796-.489-3.71-1.468-.889-.9273-1.3334-2.139-1.3334-3.633 0-1.804.4477-3.208 1.343-4.213.8956-1.005 2.129-1.5075 3.701-1.5075 1.7523 0 3.06.6055 3.9233 1.8166.7343 1.0436 1.108 2.448 1.121 4.213zm-7.112-1.8553h4.097c-.0386-.683-.2834-1.1982-.7343-1.546-.3608-.2835-.799-.4252-1.3142-.4252-.4896 0-.9212.161-1.295.483-.438.3608-.6892.857-.7536 1.4882zM89.379 8.922h-7.0735c.013.902.2706 1.5783.773 2.0293.3995.3737.889.5605 1.469.5605.5282 0 .979-.1482 1.3527-.4445.2964-.232.683-.6893 1.1596-1.3722l2.2612 1.179c-1.0178 1.894-2.68 2.841-4.9862 2.841-1.559 0-2.7958-.489-3.7106-1.468-.889-.9273-1.3336-2.139-1.3336-3.633 0-1.804.4477-3.208 1.3432-4.213s2.129-1.5075 3.701-1.5075c1.7522 0 3.06.6055 3.9232 1.8166.7344 1.0436 1.108 2.448 1.121 4.213zm-7.112-1.8553h4.097c-.0386-.683-.2834-1.1982-.7343-1.546-.3608-.2835-.799-.4252-1.3142-.4252-.4897 0-.9212.161-1.295.483-.438.3608-.6892.857-.7536 1.4882zm8.6303 6.3777V3.1628h3.015v.9084c.335-.3994.7505-.6958 1.2465-.889.496-.1933 1.0726-.29 1.7297-.29 1.0436 0 1.823.2448 2.3384.7345.515.4896.773 1.2304.773 2.2225v7.5952h-3.015V7.0088c0-.567-.123-.989-.367-1.266-.245-.277-.612-.4154-1.102-.4154-.529 0-.928.1417-1.198.425-.271.2836-.406.7152-.406 1.295v6.397h-3.015z" opacity=".2"/>
</svg>
