<?xml version="1.0" encoding="UTF-8"?>
<svg width="137px" height="25px" viewBox="0 0 137 25" version="1.1" xmlns="http://www.w3.org/2000/svg" xmlns:xlink="http://www.w3.org/1999/xlink">
    <!-- Generator: sketchtool 41.2 (35397) - http://www.bohemiancoding.com/sketch -->
    <title>EA5A8D33-64B9-4923-A21A-115BBE6DDA8A</title>
    <desc>Created with sketchtool.</desc>
    <defs></defs>
    <g id="Page-1" stroke="none" stroke-width="1" fill="none" fill-rule="evenodd">
        <g id="cto-security-checklist-footer" transform="translate(-529.000000, -1364.000000)" fill="#FFFFFF">
            <g id="sqreen-logo" transform="translate(529.000000, 1364.000000)">
                <g id="logo-copy" transform="translate(0.000000, 0.892308)">
                    <path d="M45.9103648,11.9359674 C45.9103648,11.9359674 45.9103648,12.3448641 45.7066206,12.6174619 C45.4349616,12.9582091 40.6809297,19.0916597 38.4397433,22.022086 C36.1985568,25.0206619 31.6482692,23.3850751 31.6482692,23.3850751 C31.6482692,23.3850751 33.1423935,22.4991322 34.0931999,21.3405915 C36.6060453,18.1375674 41.4279919,11.8678179 41.4279919,11.8678179 C41.4279919,11.8678179 36.6060453,5.73436737 34.0931999,2.46319374 C33.2103082,1.30465308 31.6482692,0.418710224 31.6482692,0.418710224 C31.6482692,0.418710224 36.1985568,-1.14872714 38.4397433,1.78169924 C40.6809297,4.78027506 45.4349616,10.9137256 45.6387058,11.2544729 C45.9103648,11.5270707 45.9103648,11.9359674 45.9103648,11.9359674" id="Fill-1"></path>
                    <path d="M0,11.9359674 C0,11.9359674 0,12.3448641 0.203744222,12.6174619 C0.407488445,12.8900597 5.22943504,19.0916597 7.40270675,22.022086 C9.57597845,24.9525124 14.1941808,23.3850751 14.1941808,23.3850751 C14.1941808,23.3850751 12.7000565,22.4991322 11.7492502,21.3405915 C9.23640475,18.1375674 4.41445815,11.9359674 4.41445815,11.9359674 C4.41445815,11.9359674 9.23640475,5.73436737 11.7492502,2.46319374 C12.6321418,1.30465308 14.1941808,0.418710224 14.1941808,0.418710224 C14.1941808,0.418710224 9.64389319,-1.14872714 7.40270675,1.78169924 C5.1615203,4.71212561 0.475403186,10.9137256 0.271658963,11.2544729 C0.0679147408,11.5952201 0,11.9359674 0,11.9359674" id="Fill-4"></path>
                    <path d="M22.9551824,4.16693 C18.8123832,4.16693 15.3487314,7.64255198 15.3487314,11.9359674 C15.3487314,16.2293828 18.7444685,19.7050047 22.9551824,19.7050047 C27.1658963,19.7050047 30.5616334,16.2293828 30.5616334,11.9359674 C30.5616334,7.64255198 27.0979816,4.16693 22.9551824,4.16693" id="Fill-6"></path>
                </g>
                <path d="M60.4392453,19.3260377 C64.08,19.3260377 66.1177358,17.5056604 66.1177358,15.114717 C66.1177358,9.81660377 58.3471698,11.4467925 58.3471698,9.49056604 C58.3471698,8.75698113 59.1622642,8.18641509 60.4120755,8.18641509 C62.0150943,8.18641509 63.509434,8.86566038 64.2973585,9.70792453 L65.6830189,7.34415094 C64.3788679,6.31169811 62.6128302,5.5509434 60.3849057,5.5509434 C56.9343396,5.5509434 55.005283,7.48 55.005283,9.68075472 C55.005283,14.8430189 62.8030189,13.0769811 62.8030189,15.250566 C62.8030189,16.0656604 62.0966038,16.6633962 60.6022642,16.6633962 C58.9720755,16.6633962 57.0158491,15.7667925 56.0649057,14.8701887 L54.570566,17.2883019 C55.9562264,18.565283 58.1569811,19.3260377 60.4392453,19.3260377 Z M74.6762264,16.2558491 C72.72,16.2558491 71.3615094,14.7071698 71.3615094,12.4249057 C71.3615094,10.1698113 72.72,8.62113208 74.6762264,8.62113208 C75.7901887,8.62113208 77.0671698,9.27320755 77.6377358,10.1154717 L77.6377358,14.7615094 C77.0671698,15.5766038 75.7901887,16.2558491 74.6762264,16.2558491 Z M73.589434,19.3260377 C75.1381132,19.3260377 76.5781132,18.6739623 77.6377358,17.3154717 L77.6377358,23.9992453 L81.1154717,23.9992453 L81.1154717,5.87698113 L77.6377358,5.87698113 L77.6377358,7.53433962 C76.6324528,6.25735849 75.1924528,5.5509434 73.589434,5.5509434 C70.2203774,5.5509434 67.7750943,8.05056604 67.7750943,12.4249057 C67.7750943,16.7992453 70.2203774,19.3260377 73.589434,19.3260377 Z M87.9622642,19 L87.9622642,10.3328302 C88.5328302,9.49056604 90.0543396,8.83849057 91.1954717,8.83849057 C91.5758491,8.83849057 91.9018868,8.86566038 92.1464151,8.92 L92.1464151,5.5509434 C90.5162264,5.5509434 88.8860377,6.50188679 87.9622642,7.67018868 L87.9622642,5.87698113 L84.5116981,5.87698113 L84.5116981,19 L87.9622642,19 Z M100.460377,19.3260377 C102.498113,19.3260377 104.563019,18.7011321 105.86717,17.5056604 L104.34566,15.2777358 C103.503396,16.0928302 101.954717,16.5818868 100.840755,16.5818868 C98.6128302,16.5818868 97.2815094,15.1962264 97.0641509,13.5388679 L106.818113,13.5388679 L106.818113,12.7781132 C106.818113,8.48528302 104.155472,5.5509434 100.243019,5.5509434 C96.2490566,5.5509434 93.450566,8.62113208 93.450566,12.4249057 C93.450566,16.6362264 96.4664151,19.3260377 100.460377,19.3260377 Z M103.476226,11.2022642 L97.0098113,11.2022642 C97.1728302,9.89811321 98.0966038,8.29509434 100.243019,8.29509434 C102.525283,8.29509434 103.394717,9.95245283 103.476226,11.2022642 Z M115.485283,19.3260377 C117.523019,19.3260377 119.587925,18.7011321 120.892075,17.5056604 L119.370566,15.2777358 C118.528302,16.0928302 116.979623,16.5818868 115.86566,16.5818868 C113.637736,16.5818868 112.306415,15.1962264 112.089057,13.5388679 L121.843019,13.5388679 L121.843019,12.7781132 C121.843019,8.48528302 119.180377,5.5509434 115.267925,5.5509434 C111.273962,5.5509434 108.475472,8.62113208 108.475472,12.4249057 C108.475472,16.6362264 111.491321,19.3260377 115.485283,19.3260377 Z M118.501132,11.2022642 L112.034717,11.2022642 C112.197736,9.89811321 113.121509,8.29509434 115.267925,8.29509434 C117.550189,8.29509434 118.419623,9.95245283 118.501132,11.2022642 Z M136.650566,19 L136.650566,9.73509434 C136.650566,7.18113208 135.264906,5.5509434 132.384906,5.5509434 C130.238491,5.5509434 128.635472,6.58339623 127.793208,7.58867925 L127.793208,5.87698113 L124.342642,5.87698113 L124.342642,19 L127.793208,19 L127.793208,10.1698113 C128.363774,9.38188679 129.423396,8.62113208 130.781887,8.62113208 C132.249057,8.62113208 133.2,9.24603774 133.2,11.0664151 L133.2,19 L136.650566,19 Z" id="sqreen"></path>
            </g>
        </g>
    </g>
</svg>