<?xml version="1.0" standalone="no"?>
<!DOCTYPE svg PUBLIC "-//W3C//DTD SVG 20010904//EN"
 "http://www.w3.org/TR/2001/REC-SVG-20010904/DTD/svg10.dtd">
<svg version="1.0" xmlns="http://www.w3.org/2000/svg"
 width="512.000000pt" height="512.000000pt" viewBox="0 0 512.000000 512.000000"
 preserveAspectRatio="xMidYMid meet">
<metadata>
Created by potrace 1.11, written by Peter Selinger 2001-2013
</metadata>
<g transform="translate(0.000000,512.000000) scale(0.100000,-0.100000)"
fill="#000000" stroke="none">
<path d="M2460 4950 c-197 -198 -419 -321 -691 -382 -138 -31 -426 -33 -559
-5 -251 54 -498 166 -793 361 l-27 18 0 -1606 0 -1606 24 -62 c130 -346 472
-746 881 -1030 294 -204 629 -366 1044 -505 l224 -75 176 57 c621 201 1091
466 1467 827 229 220 420 490 510 719 l24 63 0 1609 c0 885 -3 1607 -7 1605
-5 -2 -47 -28 -94 -59 -245 -162 -477 -264 -719 -316 -133 -28 -421 -26 -559
5 -272 61 -493 183 -691 382 l-106 105 -104 -105z m1063 -1708 l217 -217 -721
-740 c-396 -407 -740 -759 -763 -783 l-43 -44 -437 449 -437 448 220 219 221
218 217 -222 218 -221 540 555 c297 305 542 556 545 556 3 0 103 -98 223 -218z"/>
</g>
</svg>
